<svg version="1.1" id="Layer_1" xmlns="http://www.w3.org/2000/svg" xmlns:xlink="http://www.w3.org/1999/xlink" x="0px" y="0px"
	 width="100%" viewBox="0 0 1024 1024" enable-background="new 0 0 1024 1024" xml:space="preserve">
<path fill="#000000" opacity="1.000000" stroke="none" 
	d="
M525.546265,153.737579 
	C530.009216,154.699738 530.379150,157.688232 530.372559,161.097565 
	C530.329834,183.094193 530.349182,205.090973 530.371216,227.087677 
	C530.378418,234.239548 530.813721,234.653915 538.097900,234.660080 
	C555.262024,234.674622 572.426147,234.648972 589.590210,234.683197 
	C595.804199,234.695587 597.297180,236.180298 597.336487,242.293472 
	C597.381470,249.292145 597.397095,256.291779 597.331848,263.290131 
	C597.279358,268.928314 595.875610,270.333649 590.144653,270.349640 
	C572.647400,270.398438 555.149963,270.365265 537.652588,270.381897 
	C531.191895,270.388031 530.361206,271.154999 530.350586,277.470490 
	C530.318115,296.787506 530.338806,316.104645 530.338806,335.658386 
	C532.518860,335.751801 533.720093,334.495789 534.894165,333.509430 
	C551.524841,319.537781 571.283020,313.093994 592.279419,309.757721 
	C618.060242,305.661316 643.639832,307.451019 669.097778,312.662445 
	C673.803955,313.625824 676.831543,315.710663 678.065552,320.625641 
	C679.480225,326.260315 681.691650,331.692596 683.167175,337.315094 
	C684.026855,340.590759 685.953674,341.948700 689.022217,342.433228 
	C693.283630,343.106171 697.509949,344.024689 701.784180,344.587982 
	C707.974609,345.403778 711.403381,348.919739 713.384766,354.729858 
	C724.282654,386.686584 735.337280,418.589905 746.369141,450.500854 
	C753.271484,470.466797 759.791382,490.580261 767.304077,510.314880 
	C772.953491,525.154968 764.563232,535.927124 747.518250,533.072876 
	C730.476440,530.218994 713.351868,527.853394 696.143188,526.547546 
	C675.066345,524.948303 653.946960,524.571655 632.795593,526.188354 
	C608.060730,528.078857 584.194641,533.431458 561.091675,542.373474 
	C555.926331,544.372742 551.192383,546.923767 547.066162,550.775818 
	C540.346680,557.048828 531.600342,558.419678 522.981567,559.097107 
	C512.869141,559.892029 502.669067,559.843384 492.708649,557.279419 
	C487.158813,555.850769 482.074677,553.481079 477.924957,549.358948 
	C473.477783,544.941406 468.228485,541.887390 462.258698,539.887634 
	C440.250214,532.515320 417.694519,528.095520 394.549774,526.232239 
	C373.401703,524.529785 352.287659,525.012146 331.200531,526.507935 
	C313.968323,527.730286 296.837158,530.118713 279.756500,532.764038 
	C278.279785,532.992737 276.796661,533.262573 275.308777,533.323120 
	C260.759094,533.914368 254.272675,525.480530 259.016296,511.652374 
	C269.975616,479.704895 281.170380,447.838226 292.223236,415.922729 
	C299.191833,395.800659 306.216095,375.695770 312.917175,355.484314 
	C315.030853,349.109253 318.462311,345.018341 325.421814,344.491577 
	C326.568878,344.404816 327.700104,343.718964 328.822601,343.759064 
	C339.091003,344.126282 343.613556,339.137787 346.132843,329.120178 
	C350.491730,311.787689 347.941742,314.539337 365.338196,311.286835 
	C400.546509,304.704132 435.148926,306.523712 468.826996,319.548523 
	C476.342255,322.455017 483.242401,326.403717 489.547302,331.426361 
	C491.038757,332.614471 492.334595,334.404114 494.678772,333.907196 
	C496.121490,332.516022 495.631622,330.748596 495.635254,329.153503 
	C495.674530,311.989471 495.680786,294.825317 495.650085,277.661255 
	C495.638123,270.964355 495.000366,270.386169 488.076233,270.380890 
	C471.078766,270.367950 454.081238,270.395233 437.083862,270.356445 
	C431.064667,270.342712 429.505768,269.154907 429.246307,263.217102 
	C428.926666,255.901733 429.130005,248.561157 429.193909,241.232239 
	C429.235931,236.411697 431.845947,234.592590 436.568939,234.624908 
	C454.065460,234.744675 471.563385,234.677856 489.060760,234.655441 
	C495.235016,234.647537 495.661469,234.241058 495.666473,228.152496 
	C495.684540,206.155792 495.656891,184.159042 495.670227,162.162323 
	C495.674591,154.996750 497.002960,153.660339 504.095947,153.644653 
	C511.094086,153.629166 518.092346,153.675705 525.546265,153.737579 
M648.652283,328.018921 
	C622.633545,324.447449 596.799255,324.842773 571.801697,333.651459 
	C553.708984,340.027039 539.321350,351.671051 528.659485,367.756744 
	C525.738953,372.162994 524.215820,376.759399 524.249084,382.233063 
	C524.446655,414.715424 524.334717,447.199615 524.378052,479.683105 
	C524.380798,481.764557 523.792542,483.986206 525.451355,486.462402 
	C550.476257,467.480988 578.640442,455.971863 609.349548,450.369934 
	C639.912781,444.794525 670.352173,444.515259 701.489868,452.253174 
	C700.604858,449.313141 699.972351,446.970642 699.198059,444.676025 
	C687.446594,409.847198 675.385498,375.118256 664.130981,340.129791 
	C661.558472,332.132233 657.400085,328.478485 648.652283,328.018921 
M454.461121,334.118103 
	C442.938690,330.143188 431.100281,327.934509 418.934570,326.961365 
	C403.090485,325.694000 387.408905,326.174835 371.800873,329.275940 
	C368.129395,330.005402 366.124664,331.839172 364.913208,335.456421 
	C352.398438,372.823273 339.734863,410.140228 327.111084,447.470551 
	C326.646301,448.844910 325.749207,450.188141 326.642242,451.448486 
	C389.455200,439.732849 448.380524,446.602142 501.026154,485.841003 
	C502.133759,483.880676 501.628418,481.851257 501.630615,479.920807 
	C501.668396,446.614960 501.486389,413.307373 501.805389,380.004547 
	C501.871063,373.146576 499.696350,367.799194 495.576050,362.718414 
	C484.794159,349.423126 471.034973,340.425903 454.461121,334.118103 
M407.068237,497.075531 
	C416.774902,498.363739 426.406128,500.031219 435.951263,502.260834 
	C457.141968,507.210602 477.149139,515.278015 496.612122,524.849304 
	C498.259644,525.659485 500.129211,527.622864 501.955811,525.430237 
	C503.598053,523.458984 501.875366,521.702148 500.934479,519.998535 
	C498.752350,516.047363 496.143799,512.407471 493.096100,509.067352 
	C476.517792,490.898468 455.641663,479.921387 432.305176,473.443573 
	C411.511902,467.671722 390.288300,465.730499 368.655029,467.032715 
	C350.126373,468.148071 332.006775,470.937683 314.337006,476.594940 
	C311.970093,477.352692 309.134125,477.870056 308.023865,480.278473 
	C304.648499,487.600464 301.879456,495.166687 299.160919,504.254578 
	C335.300049,496.335449 370.560211,493.522430 407.068237,497.075531 
M672.706360,468.085388 
	C671.730896,467.874695 670.764221,467.543396 669.778625,467.470917 
	C643.361511,465.528870 617.258606,467.363220 591.775940,474.861511 
	C569.584656,481.391266 549.362427,491.554840 533.307251,508.771027 
	C530.116272,512.192749 527.313843,515.917603 525.137451,520.071350 
	C524.186951,521.885559 523.481262,523.856873 525.313599,525.555420 
	C526.906311,527.031860 528.681335,526.612000 530.403198,525.657776 
	C531.131226,525.254456 531.870300,524.870605 532.610107,524.489075 
	C564.310608,508.140991 597.736450,497.610016 633.500977,495.844482 
	C663.160583,494.380310 692.648193,496.254303 721.676270,503.080048 
	C723.593445,503.530853 725.512329,504.355774 727.643188,501.984863 
	C724.978455,495.117981 722.283203,488.001709 719.436218,480.946686 
	C718.647644,478.992523 716.790100,478.013336 714.835999,477.367615 
	C701.400818,472.928162 687.741943,469.494324 672.706360,468.085388 
z"/>
<path fill="#000000" opacity="1.000000" stroke="none" 
	d="
M345.023682,703.993774 
	C356.021667,706.995544 366.529205,710.136536 374.916046,717.891052 
	C398.433838,739.635803 394.483063,779.166443 366.920258,797.402832 
	C354.964935,805.312744 341.522461,809.287598 327.472839,810.232788 
	C289.057220,812.817139 250.566711,810.810059 212.111572,811.319397 
	C208.413208,811.368408 205.084335,810.502380 204.192810,806.099182 
	C203.344009,801.907166 204.827423,799.139038 208.814713,797.331116 
	C219.579193,792.450256 223.521805,783.158081 223.568924,772.181702 
	C223.754074,729.036865 223.780716,685.889954 223.539474,642.745728 
	C223.485031,633.010864 219.102249,625.126526 210.113129,620.336121 
	C207.794907,619.100708 205.311172,617.984741 204.726471,614.890503 
	C203.514282,608.475708 205.522110,605.752441 212.236389,605.739746 
	C245.553131,605.676697 278.885284,605.137207 312.181000,605.984314 
	C330.701050,606.455505 348.923859,610.095520 364.341736,621.816101 
	C386.178497,638.416260 387.390869,672.186707 366.769623,689.314636 
	C360.894897,694.194153 353.938263,696.924194 346.805634,699.322876 
	C344.828369,699.987793 342.527740,700.025085 341.011566,701.857361 
	C341.560181,703.868530 343.355865,703.429810 345.023682,703.993774 
M334.144348,772.598206 
	C338.637299,764.612122 338.146576,755.887939 337.574371,747.268799 
	C336.456177,730.426575 323.787476,717.087341 307.227142,714.245239 
	C298.224457,712.700195 289.319946,713.938354 280.367432,713.989197 
	C275.886353,714.014648 274.252533,716.008667 274.280273,720.435425 
	C274.410461,741.240234 274.455048,762.047302 274.259705,782.851013 
	C274.211243,788.012878 276.680542,789.840210 281.225952,790.697937 
	C288.335419,792.039490 295.532043,792.141907 302.599487,791.476196 
	C315.644501,790.247620 327.365967,786.110229 334.144348,772.598206 
M303.838562,626.612976 
	C297.018402,626.517090 290.198303,626.349243 283.378082,626.344727 
	C275.821320,626.339783 274.380371,627.764648 274.356506,635.401794 
	C274.301880,652.881836 274.483246,670.364136 274.249329,687.841248 
	C274.183319,692.772461 276.466614,694.528442 280.764496,694.513611 
	C288.575989,694.486389 296.365936,694.003784 304.093750,692.759155 
	C315.139313,690.980347 322.350830,684.580383 326.398407,674.333740 
	C328.904022,667.990601 329.093597,661.362305 328.795685,654.685852 
	C328.039490,637.738647 321.113586,629.762512 303.838562,626.612976 
z"/>
<path fill="#000000" opacity="1.000000" stroke="none" 
	d="
M507.883667,629.273682 
	C505.907471,624.976685 502.674927,622.401672 499.182709,620.050842 
	C497.392029,618.845398 495.474274,617.715698 493.994629,616.184021 
	C490.598785,612.668701 491.614624,608.175598 496.263794,606.840576 
	C513.999878,601.747803 531.758301,596.723816 549.584351,591.958740 
	C555.804443,590.296082 558.353394,592.717346 558.276917,599.720764 
	C558.011414,624.034973 557.604797,648.347595 557.296814,672.661438 
	C557.267822,674.945312 556.855591,677.297974 557.856812,679.577881 
	C560.137390,680.023010 561.103088,678.182861 562.379944,677.031250 
	C581.238220,660.022644 603.037292,656.550598 626.554382,664.249146 
	C648.854553,671.549255 660.231689,688.831909 665.177368,710.756836 
	C668.978027,727.605835 668.436829,744.593323 662.977600,760.992859 
	C652.707520,791.844421 629.720398,807.690735 598.775940,813.271179 
	C580.703552,816.530273 562.995056,813.554443 545.590393,808.643372 
	C536.271545,806.013916 527.341797,804.835144 518.046753,809.184814 
	C512.166626,811.936401 509.684265,809.828003 509.671783,803.304382 
	C509.627106,779.980347 509.651672,756.656067 509.651215,733.331909 
	C509.650604,701.844238 509.630829,670.356506 509.681549,638.868958 
	C509.686707,635.651733 509.349518,632.568726 507.883667,629.273682 
M586.756470,795.321228 
	C599.389282,793.069458 607.724976,785.406738 612.213196,773.826965 
	C620.134216,753.390503 620.131165,732.495728 613.294556,711.856567 
	C609.491760,700.376404 602.549866,690.935425 589.446289,688.825317 
	C579.048279,687.151001 570.441772,691.868408 562.167542,697.524658 
	C558.331177,700.147034 556.780334,703.209717 556.985657,707.927490 
	C557.874695,728.360291 557.522461,748.822693 557.951050,769.271606 
	C558.311584,786.472046 570.530029,797.094543 586.756470,795.321228 
z"/>
<path fill="#000000" opacity="1.000000" stroke="none" 
	d="
M773.136353,713.781982 
	C784.080750,718.763123 794.896179,723.131165 805.084839,728.849792 
	C826.336975,740.778076 831.720947,760.340027 824.984802,781.791199 
	C820.139099,797.222107 807.402588,805.293579 792.819763,810.066467 
	C769.110046,817.826599 745.625793,816.346497 722.711182,806.555054 
	C719.679993,805.259766 716.946350,803.258667 714.099792,801.543091 
	C710.314819,799.261780 708.763611,795.804016 708.773987,791.471924 
	C708.793518,783.308289 708.638184,775.142883 708.758301,766.981262 
	C708.848450,760.857910 713.678040,758.262634 719.112732,761.277893 
	C722.753296,763.297668 724.879333,766.739258 727.057068,770.093933 
	C731.718567,777.274780 737.004272,783.930786 744.119690,788.813354 
	C754.838562,796.168823 766.351685,798.649536 778.474426,792.632568 
	C789.964050,786.929688 790.811890,774.521240 780.457153,766.891113 
	C772.053650,760.698669 762.153687,757.436890 752.836670,753.035645 
	C744.408447,749.054260 735.994446,745.102295 728.204468,739.862671 
	C700.564758,721.271667 706.484741,684.846741 731.040894,670.478516 
	C742.065002,664.028198 753.880676,660.939148 766.655273,660.565186 
	C781.977051,660.116577 796.767151,662.480042 811.328918,667.043945 
	C816.193604,668.568604 818.282593,671.478149 818.393372,676.517334 
	C818.565063,684.326721 818.699768,692.183655 819.682007,699.914673 
	C820.556335,706.796021 813.646545,709.700134 808.728821,707.236328 
	C804.096191,704.915466 801.677673,700.741638 799.309875,696.544800 
	C796.840881,692.168518 794.225647,687.946350 790.512939,684.493652 
	C781.728455,676.324219 771.637146,674.375977 760.501160,678.564148 
	C748.979187,682.897400 746.697632,694.222778 755.522156,702.775452 
	C760.495605,707.595642 766.675659,710.585571 773.136353,713.781982 
z"/>
<path fill="#000000" opacity="1.000000" stroke="none" 
	d="
M416.077576,811.375549 
	C413.592926,811.338135 411.585815,811.408020 409.599274,811.237915 
	C406.912537,811.007812 404.729523,809.791870 403.977356,807.050354 
	C403.227295,804.316284 403.698547,801.743469 405.974640,799.767822 
	C406.473938,799.334473 407.016724,798.911743 407.609039,798.630798 
	C418.884338,793.281372 422.297577,784.280151 421.853882,772.114807 
	C421.119720,751.986084 421.134216,731.792480 421.860260,711.663208 
	C422.256012,700.690552 417.872345,693.539185 408.959778,688.297119 
	C408.385498,687.959351 407.805695,687.630981 407.232788,687.290894 
	C404.705139,685.790771 403.444977,683.610840 403.745361,680.640503 
	C404.038696,677.739319 405.962067,676.286072 408.525635,675.523804 
	C420.791626,671.876465 433.054352,668.217285 445.343384,664.648926 
	C450.283081,663.214478 455.091675,661.171631 460.257568,660.695984 
	C466.680939,660.104553 468.320404,661.685303 468.324158,668.146729 
	C468.344910,703.960083 468.573486,739.775940 468.191528,775.585205 
	C468.085144,785.558960 471.670013,792.560608 480.016418,797.502197 
	C482.036041,798.697998 483.906281,799.977173 484.307983,802.647400 
	C485.189819,808.509399 482.887909,811.296875 476.530640,811.322632 
	C456.542114,811.403625 436.553101,811.367004 416.077576,811.375549 
z"/>
<path fill="#000000" opacity="1.000000" stroke="none" 
	d="
M710.377686,655.273804 
	C703.541687,665.203918 694.840881,672.594849 684.929749,678.619629 
	C682.071655,680.356934 678.856445,682.258972 676.039673,678.666077 
	C673.181641,675.020386 675.201050,672.323669 678.110596,669.735168 
	C682.502563,665.827881 686.143250,661.309937 687.940186,655.569031 
	C689.892334,649.332153 688.844543,646.350830 683.065735,643.167419 
	C676.073914,639.315674 670.789307,634.446533 669.136841,626.068787 
	C666.566895,613.039001 676.815735,599.375793 690.161072,598.664551 
	C710.858948,597.561646 723.618347,612.545044 719.518127,632.950134 
	C717.922363,640.891541 715.055054,648.237671 710.377686,655.273804 
z"/>
<path fill="#000000" opacity="1.000000" stroke="none" 
	d="
M456.954742,646.268494 
	C445.314362,651.291138 435.006958,649.263855 426.084778,641.268250 
	C418.713928,634.662903 416.023010,626.205505 418.782654,616.415039 
	C421.626129,606.326965 428.911987,600.722717 438.643524,598.924683 
	C461.589539,594.685242 473.165100,610.311340 469.874908,631.445068 
	C468.788147,638.425354 463.398621,642.843811 456.954742,646.268494 
z"/>
<path fill="#000000" opacity="1.000000" stroke="none" 
	d="
M603.724854,202.695435 
	C599.797791,207.898529 596.098938,212.826263 592.376404,217.736023 
	C589.846252,221.073196 586.800537,222.577988 582.943298,219.912338 
	C579.376770,217.447586 578.968628,213.955948 581.909851,209.980865 
	C587.848083,201.955170 593.906128,194.017914 599.940186,186.063431 
	C602.492615,182.698547 605.636841,181.399704 609.439148,183.960815 
	C612.777954,186.209686 613.066833,189.972580 610.246277,194.028839 
	C608.251648,196.897385 606.051453,199.622986 603.724854,202.695435 
z"/>
<path fill="#000000" opacity="1.000000" stroke="none" 
	d="
M432.733643,194.294556 
	C436.643066,199.508133 440.371796,204.409637 444.019958,209.370392 
	C447.131195,213.601059 446.901428,217.260040 443.481812,219.912384 
	C440.326630,222.359695 436.893066,221.544678 433.741882,217.403366 
	C427.996185,209.852295 422.305878,202.258530 416.648285,194.641113 
	C413.704651,190.677780 413.913269,186.360626 417.023499,183.967636 
	C420.263397,181.474854 423.725464,182.445129 427.104248,186.832016 
	C428.932526,189.205811 430.714905,191.614960 432.733643,194.294556 
z"/>
<path fill="#000000" opacity="1.000000" stroke="none" 
	d="
M614.589233,263.476685 
	C611.763611,257.690552 612.340820,255.794891 617.874512,253.626038 
	C626.988892,250.053818 636.164856,246.631302 645.380737,243.329697 
	C648.600098,242.176376 652.095154,241.634781 653.945068,245.668869 
	C655.692993,249.480515 654.064758,252.701950 649.391296,254.499481 
	C640.408936,257.954285 631.361694,261.240753 622.336914,264.584839 
	C619.724365,265.552948 617.161255,265.879761 614.589233,263.476685 
z"/>
<path fill="#000000" opacity="1.000000" stroke="none" 
	d="
M411.216492,254.869232 
	C413.876648,257.488739 413.964874,260.121338 412.031219,262.713104 
	C409.948242,265.504944 407.187134,265.796753 404.025940,264.583954 
	C395.046021,261.138824 386.039246,257.763245 377.030426,254.394012 
	C373.362152,253.022095 370.894257,250.844681 372.086151,246.559891 
	C373.072510,243.014069 376.620697,241.597580 381.161438,243.263718 
	C391.119385,246.917542 400.976898,250.845078 411.216492,254.869232 
z"/>
</svg>